# xmcd
#
# Track frame offsets:
#	150
#	14720
#	27343
#	40850
#	56259
#	73497
#	86349
#	98690
#	111774
#	126901
#	141503
#	151694
#	162662
#	176514
#	187058
#	199940
#
# Disc length: 2841 seconds
#
# Revision: 2
# Processed by: cddbd v1.4PL0 Copyright (c) Steve Scherf et al.
# Submitted via: audiograbber 1.82.02
#
DISCID=e40b1710
DTITLE=Gleen Miller - King Of The Swing Vol. 1
DYEAR=1900
DGENRE=Jazz
TTITLE0=Moonlight Serenade
TTITLE1=Johnson Rag
TTITLE2=Three Little Fishies (Itty Bitty Poo)
TTITLE3=Sunrise Serenade
TTITLE4=Tiger Rag
TTITLE5=Stairway To The Star
TTITLE6=Back To Back
TTITLE7=The Man With The Mandolin
TTITLE8=Faithful Forever
TTITLE9=Pagan Love Song
TTITLE10=Danny Boy
TTITLE11=Mister Meadowlark
TTITLE12=Careless
TTITLE13=Starlight And Music
TTITLE14=When You Wish Upon A Star
TTITLE15=Good Bye, Little Dalin, Goodbye
EXTD=
EXTT0=
EXTT1=
EXTT2=
EXTT3=
EXTT4=
EXTT5=
EXTT6=
EXTT7=
EXTT8=
EXTT9=
EXTT10=
EXTT11=
EXTT12=
EXTT13=
EXTT14=
EXTT15=
PLAYORDER=
